PathFileType	4	(X/Y/Z)	C:\Documents and Settings\rtobon\Desktop\NewMocap\New\NoT\ActorI_Run.trc
DataRate	CameraRate	NumFrames	NumMarkers	Units	OrigDataRate	OrigDataStartFrame	OrigNumFrames
120.00	120.00	       4	49	mm	120.00	79	       105
Frame#	Time	Root			LtFtHip			LtBkHip			RtFtHip			RtBkHip			Spine1			Spine2			Spine3			SpineOffsetLow			SpineOffsetHigh			LtCtChest			RtCtChest			LtChest			RtChest			LtShoulder			LtBicep			LtElbow			LtForeArm			LtWrist			LtPinky			LtThumb			LtMiddFing			RtShoulder			RtBicep			RtElbow			RtForeArm			RtWrist			RtPinky			RtThumb			RtMiddFing			LtThigh			LtKnee			LtCalf			LtAnkle			LtHeel			LtBall			LtToe			RtThigh			RtKnee			RtCalf			RtAnkle			RtHeel			RtBall			RtToe			TopHead			LfFtHead			LtBkHead			RtFtHead			RtBkHead			
		X1	Y1	Z1	X2	Y2	Z2	X3	Y3	Z3	X4	Y4	Z4	X5	Y5	Z5	X6	Y6	Z6	X7	Y7	Z7	X8	Y8	Z8	X9	Y9	Z9	X10	Y10	Z10	X11	Y11	Z11	X12	Y12	Z12	X13	Y13	Z13	X14	Y14	Z14	X15	Y15	Z15	X16	Y16	Z16	X17	Y17	Z17	X18	Y18	Z18	X19	Y19	Z19	X20	Y20	Z20	X21	Y21	Z21	X22	Y22	Z22	X23	Y23	Z23	X24	Y24	Z24	X25	Y25	Z25	X26	Y26	Z26	X27	Y27	Z27	X28	Y28	Z28	X29	Y29	Z29	X30	Y30	Z30	X31	Y31	Z31	X32	Y32	Z32	X33	Y33	Z33	X34	Y34	Z34	X35	Y35	Z35	X36	Y36	Z36	X37	Y37	Z37	X38	Y38	Z38	X39	Y39	Z39	X40	Y40	Z40	X41	Y41	Z41	X42	Y42	Z42	X43	Y43	Z43	X44	Y44	Z44	X45	Y45	Z45	X46	Y46	Z46	X47	Y47	Z47	X48	Y48	Z48	X49	Y49	Z49	
79	0.650	834.54230	920.57092	-4.29309	1068.90332	904.77545	-82.17823	878.11151	928.20508	-117.38560	1032.96326	861.95337	166.67685	842.58514	902.64539	124.18305	774.41437	1036.05969	32.69777	706.64630	1150.67932	48.10300	679.70392	1248.29211	41.30587	810.67834	978.25806	100.07558	686.13538	1203.56873	-55.45184	980.12811	1193.46301	-1.51779	935.66528	1246.17554	45.65866	896.75336	1259.96191	-76.89409	900.52563	1282.28394	111.22308	773.65533	1298.38904	-150.70616	757.35675	1122.42139	-250.54913	621.73981	1076.63977	-309.91000	762.76538	986.03400	-244.82803	798.98535	899.95905	-263.22379	817.61987	821.61713	-252.61961	845.39832	926.33051	-207.33914	860.88257	876.68048	-255.93153	796.83588	1302.61353	232.83995	976.43402	1255.91956	226.08765	1080.51672	1150.92163	288.87955	1029.47034	1268.82422	226.19376	1080.11169	1375.64355	209.02084	1121.23242	1430.90784	153.70355	1010.99591	1378.91968	181.49107	1064.46912	1439.49438	198.56120	1174.77527	768.09924	-101.64937	1297.43433	599.12885	-148.53143	1192.62341	441.41205	-168.84001	1217.35559	235.34842	-153.98253	1124.84387	160.31897	-85.02654	1290.25476	113.31023	-163.60483	1386.70496	82.23559	-116.00492	964.81116	545.58673	132.11223	847.87286	403.03738	140.61320	670.25000	368.13049	154.25764	519.48370	213.82159	89.52448	439.26813	200.40466	5.12623	534.33051	59.79928	105.17894	586.98291	44.61708	50.46307	582.07025	1502.14905	8.83236	725.26672	1508.21082	-49.26285	647.68475	1389.38855	-65.16090	724.12646	1535.11328	74.09597	629.29565	1407.35779	111.72144	
80	0.658	868.77917	923.05969	-1.35853	1102.93152	908.32825	-84.73591	910.71130	930.54358	-115.53415	1070.40222	864.96069	164.51959	880.49817	905.92682	125.72591	805.84662	1039.40161	35.87437	738.97589	1154.00073	50.58857	711.29968	1250.78040	43.54837	845.82697	983.07990	104.27486	716.00726	1207.92676	-53.38437	1010.97040	1195.78149	-5.30617	967.22192	1248.51489	42.42446	926.25854	1261.81445	-79.11980	932.64032	1285.53198	106.93571	802.24298	1303.18311	-148.86549	779.76019	1132.17065	-254.15901	642.17468	1091.78992	-312.98111	779.51862	994.82434	-249.01645	812.04913	908.15979	-267.87668	828.22827	828.66388	-258.05838	858.76959	931.51587	-210.13145	873.69904	882.53723	-259.35690	830.43170	1310.23010	229.93098	1010.62769	1270.74304	225.79150	1120.37500	1171.73450	288.71384	1060.39941	1285.76123	226.30841	1104.07532	1396.18115	206.71986	1141.48572	1452.67090	149.80765	1034.66321	1394.69861	179.46877	1084.34497	1458.52612	194.60565	1209.76025	765.50262	-103.42886	1328.75903	594.44061	-146.81860	1230.09790	432.79257	-169.59291	1265.57886	227.59787	-151.86397	1174.62097	147.46550	-87.24870	1346.65344	108.70322	-156.85460	1442.66199	85.58686	-104.95343	996.62445	548.24664	130.87094	876.20026	409.07355	140.26015	697.10767	378.21475	151.85738	543.96362	223.88664	91.13947	468.74527	218.09106	5.98354	545.35742	65.10857	105.04949	597.64935	41.81869	50.76114	613.14856	1502.45178	9.56041	756.18011	1508.35217	-49.06027	678.48370	1389.48340	-64.59166	755.37103	1534.95154	74.36470	660.92926	1407.40295	112.55086	
81	0.667	902.93805	924.44830	1.05840	1136.26001	911.54535	-87.88895	942.28021	932.35144	-113.60092	1107.19153	867.22369	161.26154	917.67169	907.69202	127.79237	838.08368	1041.89722	37.84711	771.32416	1157.66394	52.78749	742.47156	1253.46008	45.26032	882.11005	986.52625	108.52972	747.55859	1210.63086	-50.76155	1041.93738	1197.67505	-9.04715	998.37500	1250.07007	39.59404	955.80127	1262.97595	-80.99551	965.12244	1288.45129	103.09336	831.75006	1307.31958	-147.70889	803.43909	1140.58484	-256.13034	665.47845	1106.23096	-315.86102	798.30573	1003.78143	-252.02826	829.53076	916.18762	-270.52573	842.85797	836.48975	-262.91412	874.83679	937.53961	-211.12328	889.77057	889.29083	-261.76181	864.25293	1317.10535	226.30753	1044.42139	1284.47302	226.04408	1158.59277	1190.77881	290.22833	1091.46387	1300.23926	225.53931	1128.78003	1413.19397	204.55139	1162.52563	1470.56848	146.29410	1059.26880	1407.10498	178.20532	1105.32666	1474.51123	191.14128	1244.18530	761.60876	-105.93011	1358.26025	587.94904	-145.28708	1266.16064	424.52298	-170.17024	1309.80640	220.68353	-150.47205	1220.87634	134.99068	-89.79285	1398.37170	104.83456	-150.21657	1493.87988	90.69819	-93.65956	1030.10632	550.18042	129.78995	906.98981	411.67258	140.32777	726.84448	384.86237	151.12111	570.21289	234.36244	91.82911	500.21140	237.09314	6.42733	559.71100	75.62450	105.42799	610.07843	36.93840	52.92293	644.47827	1501.73584	10.64695	786.52045	1507.86877	-48.53661	709.46100	1388.99622	-64.11745	787.33643	1534.43762	74.27843	692.86060	1406.97290	112.98370	
82	0.675	936.06317	925.16394	3.67285	1168.17725	913.79797	-91.18618	972.44110	933.72980	-111.58601	1142.95923	869.84949	158.35559	953.36029	908.71051	130.11768	869.86182	1044.69092	40.57066	804.06952	1160.43848	54.70826	774.73053	1254.99231	47.24994	917.95831	987.80731	110.83932	778.98676	1213.20911	-49.79062	1073.18823	1199.75110	-12.75786	1030.15564	1252.07373	36.05564	986.14545	1264.90820	-82.89494	997.91626	1290.83472	99.91913	861.64618	1310.55310	-146.00677	829.59003	1149.74524	-259.91467	691.19568	1119.15808	-318.67633	819.89557	1012.15582	-254.39145	849.69775	924.36310	-273.57263	861.68488	844.32281	-267.35483	893.81573	943.50433	-212.05748	909.44781	896.52576	-263.98746	898.58539	1321.75134	223.00029	1078.70422	1296.03882	225.87343	1195.40576	1207.05225	292.16467	1123.15015	1312.49170	225.85133	1154.91223	1427.32947	203.32808	1186.22351	1485.08618	142.90601	1085.73682	1417.28345	176.00986	1127.96484	1486.94592	187.11583	1277.98157	757.32318	-108.77576	1387.64478	581.77545	-144.42871	1299.38098	415.06219	-170.51840	1350.52405	213.09067	-148.70328	1264.27246	122.21645	-90.72412	1445.72913	102.31811	-144.05844	1538.79919	95.72786	-82.41267	1065.14783	551.39728	129.17529	942.65356	410.99829	141.17934	760.92218	390.15338	150.98212	598.30457	246.16037	91.16016	534.21429	255.97014	5.69014	577.95990	90.19318	106.51804	625.84564	29.67389	54.48444	675.31396	1501.36963	11.09669	817.47620	1507.87512	-49.04926	740.61780	1388.53955	-63.53249	818.63092	1535.18665	74.11114	724.50543	1406.79883	113.90194	
